<?xml version="1.0" encoding="UTF-8"?>
<svg version="1.1" xmlns="http://www.w3.org/2000/svg" width="512" height="512">
<path d="M0 0 C1.27084564 -0.00706559 2.54169128 -0.01413118 3.8510474 -0.02141088 C5.26938716 -0.01915931 6.68772662 -0.01671279 8.10606575 -0.01409245 C9.60652151 -0.01854248 11.10697492 -0.02385575 12.60742486 -0.02996117 C16.74118462 -0.04417968 20.87486934 -0.04580374 25.00865006 -0.04536426 C29.46273822 -0.04700907 33.91679515 -0.06006921 38.37086678 -0.07155704 C48.11451529 -0.09443153 57.85814207 -0.10233015 67.60181379 -0.10738349 C73.68264243 -0.11063739 79.76346473 -0.11715797 85.84428978 -0.12438488 C102.6717089 -0.14395329 119.49912211 -0.16035632 136.32655334 -0.16326141 C137.40390067 -0.16344898 138.48124799 -0.16363655 139.5912422 -0.16382981 C141.77539897 -0.16419606 143.95955574 -0.16455976 146.14371251 -0.16492092 C147.22796907 -0.16510373 148.31222563 -0.16528654 149.42933846 -0.16547489 C150.51491418 -0.16565544 151.6004899 -0.16583599 152.71896185 -0.16602201 C170.3173332 -0.16956521 187.9155823 -0.19659566 205.51391123 -0.23397278 C223.57050507 -0.2720172 241.62703819 -0.2914186 259.68367302 -0.29172093 C269.82645303 -0.29230634 279.96908719 -0.3008522 290.11182976 -0.32971859 C298.7469234 -0.35418074 307.381818 -0.36155038 316.01693688 -0.34647106 C320.42470281 -0.33928113 324.83207529 -0.34024871 329.23979759 -0.36288166 C333.2728632 -0.38339289 337.30523093 -0.38094582 341.33828832 -0.36000682 C342.79925215 -0.35649676 344.26026554 -0.3614858 345.72116433 -0.37571125 C347.70353954 -0.3937744 349.68613676 -0.37814528 351.66851807 -0.36076355 C353.32184924 -0.36198523 353.32184924 -0.36198523 355.00858104 -0.3632316 C358.92360663 0.4635329 360.42787099 2.24115329 362.96010017 5.26006222 C364.5380421 8.41594606 364.1008125 11.80165917 364.09432125 15.26684856 C364.09667348 16.10816877 364.09902571 16.94948897 364.10144922 17.81630373 C364.10816401 20.66628263 364.10768026 23.51621619 364.10727119 26.36620235 C364.11056828 28.4178036 364.11429351 30.4694042 364.11841267 32.52100396 C364.12845847 38.18288631 364.1321536 43.84475806 364.13480198 49.50664806 C364.13869739 55.60358541 364.14827621 61.70051429 364.15701485 67.79744625 C364.17586505 81.83644629 364.18603836 95.87544439 364.19447553 109.91445353 C364.19867967 116.8491687 364.20390196 123.78388299 364.20916006 130.71859743 C364.22705138 154.44801736 364.24204837 178.17743754 364.24948025 201.90686321 C364.24995501 203.39705593 364.2504309 204.88724865 364.25090791 206.37744136 C364.25114429 207.11645701 364.25138066 207.85547266 364.2516242 208.61688273 C364.25282542 212.36122381 364.25404086 216.10556489 364.25526619 219.84990597 C364.25550634 220.5929873 364.25574649 221.33606864 364.25599392 222.10166759 C364.26388884 246.20028747 364.28732406 270.29885816 364.31982213 294.39745655 C364.35410299 319.86445956 364.37382976 345.33143378 364.37712449 370.79846025 C364.37754204 373.59298564 364.37802161 376.38751102 364.37854767 379.1820364 C364.37867086 379.8701478 364.37879405 380.5582592 364.37892098 381.26722246 C364.38125516 392.35142396 364.39692727 403.43556843 364.41738951 414.51974959 C364.43762338 425.6567273 364.44280238 436.79363739 364.43361888 447.93063638 C364.42905913 453.96675807 364.43105744 460.00269419 364.45038033 466.0387907 C364.46790535 471.56079329 364.4671014 477.08247348 364.45148303 482.60447899 C364.44909068 484.60586249 364.45351399 486.60726771 364.46531168 488.60861787 C364.48032468 491.32277826 364.47083187 494.03578061 364.4550848 496.74991131 C364.46530701 497.53254156 364.47552921 498.31517181 364.48606119 499.12151814 C364.42016895 504.30153697 363.25480204 507.27850961 359.96010017 511.26006222 C357.2368449 512.62168985 355.09363104 512.3906269 352.04324818 512.39707661 C350.77439358 512.40215115 349.50553899 512.40722569 348.19823426 512.41245401 C346.77695258 512.41305574 345.35567086 512.4135548 343.93438911 512.41396236 C342.43479797 512.41797543 340.93520791 512.42241339 339.43561918 512.42724192 C335.29961885 512.4392305 331.16363021 512.44486114 327.0276159 512.44942307 C322.5728366 512.45537045 318.11807133 512.46698236 313.66330147 512.47771358 C302.89798766 512.50225614 292.13266919 512.51686678 281.367336 512.52977365 C278.32842977 512.53348402 275.289524 512.53745737 272.25061822 512.54152632 C253.39234289 512.56675953 234.53406687 512.58881959 215.67577839 512.60125446 C211.30595268 512.60418431 206.936127 512.60714595 202.56630135 512.61015987 C201.48016012 512.61090592 200.3940189 512.61165198 199.27496431 512.61242063 C181.67006841 512.62508118 164.06527335 512.65831266 146.46042462 512.69996171 C128.39934827 512.74234102 110.33832361 512.7659448 92.27719766 512.77117503 C82.13104157 512.77459353 71.98504311 512.78640041 61.83893585 512.81927776 C53.20016672 512.84722439 44.5615875 512.85830134 35.92277666 512.8470823 C31.5129863 512.84188193 27.10359401 512.8448713 22.69386101 512.86954784 C18.6589154 512.89193924 14.62465612 512.89138015 10.58969931 512.87234397 C9.12802845 512.86952967 7.66631205 512.87522151 6.2047148 512.89015691 C4.22138896 512.90918862 2.23782474 512.89451843 0.25447559 512.87809467 C-0.84828726 512.8794512 -1.95105012 512.88080773 -3.08723003 512.88220537 C-7.02562935 512.05236379 -8.52516826 510.33101319 -11.03989983 507.26006222 C-12.28569893 503.52266491 -12.18008877 500.05397176 -12.17132759 496.16146278 C-12.17338022 495.32236548 -12.17543286 494.48326818 -12.17754769 493.61874369 C-12.1832416 490.78234641 -12.18175751 487.94599732 -12.18034172 485.1095953 C-12.18292398 483.06538074 -12.18593675 481.02116668 -12.18934512 478.97695333 C-12.19743462 473.34013193 -12.19920577 467.70332325 -12.19994259 462.06649673 C-12.20178975 455.99479985 -12.20933533 449.92310963 -12.2160778 443.85141659 C-12.23038449 429.87347359 -12.23618931 415.89553369 -12.24076975 401.91758521 C-12.24310464 395.01253189 -12.24670715 388.10747941 -12.25046513 381.20242674 C-12.263301 357.57276304 -12.27402051 333.9430998 -12.27746773 310.31343269 C-12.27768936 308.82977568 -12.27791115 307.34611866 -12.27813308 305.86246165 C-12.27835372 304.3751918 -12.2785742 302.88792196 -12.27879453 301.40065211 C-12.27923708 298.41685847 -12.2796842 295.43306484 -12.2801342 292.4492712 C-12.28024359 291.70946244 -12.28035298 290.96965368 -12.28046569 290.20742647 C-12.28409731 266.21250289 -12.30002113 242.21760951 -12.32332456 218.2226975 C-12.34790872 192.86277265 -12.36163989 167.50286506 -12.36283565 142.14292794 C-12.3630071 139.36021379 -12.36322253 136.57749965 -12.36347008 133.7947855 C-12.36352585 133.1095869 -12.36358161 132.4243883 -12.36363907 131.71842611 C-12.36479071 120.68171305 -12.37582221 109.64503093 -12.39035713 98.60832833 C-12.40470824 87.51964955 -12.407714 76.43100217 -12.39991716 65.34231444 C-12.39599985 59.33254551 -12.39699282 53.32288088 -12.4109745 47.31312466 C-12.42364866 41.81526267 -12.42257324 36.31758407 -12.41038379 30.81972257 C-12.4084155 28.82711936 -12.41155699 26.83450345 -12.42022815 24.84191813 C-12.43124581 22.13978224 -12.42388585 19.43830215 -12.41183662 16.73618507 C-12.42322941 15.5674815 -12.42322941 15.5674815 -12.43485236 14.37516776 C-12.3886711 9.59945859 -11.62514426 6.29149971 -9.03989983 2.26006222 C-5.5350326 -0.07651593 -4.14480387 0.00733843 0 0 Z " fill="#FEFEFE" transform="translate(28.039899826049805,-0.26006221771240234)"/>
<path d="M0 0 C21.55555508 18.05203511 37.1641572 39.83977115 43.8359375 67.375 C44.08674072 68.28967041 44.33754395 69.20434082 44.59594727 70.14672852 C46.8421301 78.82925586 47.35701709 87.1229274 47.2734375 96.0625 C47.27006378 96.76498871 47.26669006 97.46747742 47.26321411 98.19125366 C47.18578207 109.34352675 46.33681842 119.73501883 42.8359375 130.375 C42.59456055 131.14021973 42.35318359 131.90543945 42.10449219 132.69384766 C37.03148122 148.50313656 29.87202692 162.86885234 18.8359375 175.375 C18.12695312 176.20386719 17.41796875 177.03273437 16.6875 177.88671875 C3.94225816 192.48784668 -10.7383079 202.28673966 -28.1640625 210.375 C-28.96714844 210.76429688 -29.77023438 211.15359375 -30.59765625 211.5546875 C-41.93298273 216.6231697 -55.80206744 219.00274419 -68.1640625 219.375 C-69.27322021 219.41367187 -69.27322021 219.41367187 -70.40478516 219.453125 C-103.98661079 220.49060175 -134.03401813 209.61541524 -158.76953125 186.6328125 C-159.55972656 185.88773438 -160.34992188 185.14265625 -161.1640625 184.375 C-161.90269531 183.71242187 -162.64132813 183.04984375 -163.40234375 182.3671875 C-181.309768 165.63662772 -193.83119194 139.57077459 -197.1640625 115.375 C-197.32841797 114.30958984 -197.32841797 114.30958984 -197.49609375 113.22265625 C-201.72094969 80.26877994 -192.39637598 47.59054465 -172.1640625 21.375 C-169.28663101 17.91410319 -166.27705594 14.62428912 -163.1640625 11.375 C-162.47957031 10.62734375 -161.79507813 9.8796875 -161.08984375 9.109375 C-146.99640945 -5.79163132 -127.86035176 -16.30010285 -108.1640625 -21.625 C-107.4824707 -21.81964844 -106.80087891 -22.01429687 -106.09863281 -22.21484375 C-69.86007914 -32.30951596 -29.40054987 -23.19824209 0 0 Z " fill="#072C76" transform="translate(275.1640625,69.625)"/>
<path d="M0 0 C1.27084564 -0.00706559 2.54169128 -0.01413118 3.8510474 -0.02141088 C5.26938716 -0.01915931 6.68772662 -0.01671279 8.10606575 -0.01409245 C9.60652151 -0.01854248 11.10697492 -0.02385575 12.60742486 -0.02996117 C16.74118462 -0.04417968 20.87486934 -0.04580374 25.00865006 -0.04536426 C29.46273822 -0.04700907 33.91679515 -0.06006921 38.37086678 -0.07155704 C48.11451529 -0.09443153 57.85814207 -0.10233015 67.60181379 -0.10738349 C73.68264243 -0.11063739 79.76346473 -0.11715797 85.84428978 -0.12438488 C102.6717089 -0.14395329 119.49912211 -0.16035632 136.32655334 -0.16326141 C137.40390067 -0.16344898 138.48124799 -0.16363655 139.5912422 -0.16382981 C141.77539897 -0.16419606 143.95955574 -0.16455976 146.14371251 -0.16492092 C147.22796907 -0.16510373 148.31222563 -0.16528654 149.42933846 -0.16547489 C150.51491418 -0.16565544 151.6004899 -0.16583599 152.71896185 -0.16602201 C170.3173332 -0.16956521 187.9155823 -0.19659566 205.51391123 -0.23397278 C223.57050507 -0.2720172 241.62703819 -0.2914186 259.68367302 -0.29172093 C269.82645303 -0.29230634 279.96908719 -0.3008522 290.11182976 -0.32971859 C298.7469234 -0.35418074 307.381818 -0.36155038 316.01693688 -0.34647106 C320.42470281 -0.33928113 324.83207529 -0.34024871 329.23979759 -0.36288166 C333.2728632 -0.38339289 337.30523093 -0.38094582 341.33828832 -0.36000682 C342.79925215 -0.35649676 344.26026554 -0.3614858 345.72116433 -0.37571125 C347.70353954 -0.3937744 349.68613676 -0.37814528 351.66851807 -0.36076355 C353.32184924 -0.36198523 353.32184924 -0.36198523 355.00858104 -0.3632316 C358.92360663 0.4635329 360.42787099 2.24115329 362.96010017 5.26006222 C364.5380421 8.41594606 364.1008125 11.80165917 364.09432125 15.26684856 C364.09667348 16.10816877 364.09902571 16.94948897 364.10144922 17.81630373 C364.10816401 20.66628263 364.10768026 23.51621619 364.10727119 26.36620235 C364.11056828 28.4178036 364.11429351 30.4694042 364.11841267 32.52100396 C364.12845847 38.18288631 364.1321536 43.84475806 364.13480198 49.50664806 C364.13869739 55.60358541 364.14827621 61.70051429 364.15701485 67.79744625 C364.17586505 81.83644629 364.18603836 95.87544439 364.19447553 109.91445353 C364.19867967 116.8491687 364.20390196 123.78388299 364.20916006 130.71859743 C364.22705138 154.44801736 364.24204837 178.17743754 364.24948025 201.90686321 C364.24995501 203.39705593 364.2504309 204.88724865 364.25090791 206.37744136 C364.25114429 207.11645701 364.25138066 207.85547266 364.2516242 208.61688273 C364.25282542 212.36122381 364.25404086 216.10556489 364.25526619 219.84990597 C364.25550634 220.5929873 364.25574649 221.33606864 364.25599392 222.10166759 C364.26388884 246.20028747 364.28732406 270.29885816 364.31982213 294.39745655 C364.35410299 319.86445956 364.37382976 345.33143378 364.37712449 370.79846025 C364.37754204 373.59298564 364.37802161 376.38751102 364.37854767 379.1820364 C364.37867086 379.8701478 364.37879405 380.5582592 364.37892098 381.26722246 C364.38125516 392.35142396 364.39692727 403.43556843 364.41738951 414.51974959 C364.43762338 425.6567273 364.44280238 436.79363739 364.43361888 447.93063638 C364.42905913 453.96675807 364.43105744 460.00269419 364.45038033 466.0387907 C364.46790535 471.56079329 364.4671014 477.08247348 364.45148303 482.60447899 C364.44909068 484.60586249 364.45351399 486.60726771 364.46531168 488.60861787 C364.48032468 491.32277826 364.47083187 494.03578061 364.4550848 496.74991131 C364.46530701 497.53254156 364.47552921 498.31517181 364.48606119 499.12151814 C364.42016895 504.30153697 363.25480204 507.27850961 359.96010017 511.26006222 C357.2368449 512.62168985 355.09363104 512.3906269 352.04324818 512.39707661 C350.77439358 512.40215115 349.50553899 512.40722569 348.19823426 512.41245401 C346.77695258 512.41305574 345.35567086 512.4135548 343.93438911 512.41396236 C342.43479797 512.41797543 340.93520791 512.42241339 339.43561918 512.42724192 C335.29961885 512.4392305 331.16363021 512.44486114 327.0276159 512.44942307 C322.5728366 512.45537045 318.11807133 512.46698236 313.66330147 512.47771358 C302.89798766 512.50225614 292.13266919 512.51686678 281.367336 512.52977365 C278.32842977 512.53348402 275.289524 512.53745737 272.25061822 512.54152632 C253.39234289 512.56675953 234.53406687 512.58881959 215.67577839 512.60125446 C211.30595268 512.60418431 206.936127 512.60714595 202.56630135 512.61015987 C201.48016012 512.61090592 200.3940189 512.61165198 199.27496431 512.61242063 C181.67006841 512.62508118 164.06527335 512.65831266 146.46042462 512.69996171 C128.39934827 512.74234102 110.33832361 512.7659448 92.27719766 512.77117503 C82.13104157 512.77459353 71.98504311 512.78640041 61.83893585 512.81927776 C53.20016672 512.84722439 44.5615875 512.85830134 35.92277666 512.8470823 C31.5129863 512.84188193 27.10359401 512.8448713 22.69386101 512.86954784 C18.6589154 512.89193924 14.62465612 512.89138015 10.58969931 512.87234397 C9.12802845 512.86952967 7.66631205 512.87522151 6.2047148 512.89015691 C4.22138896 512.90918862 2.23782474 512.89451843 0.25447559 512.87809467 C-0.84828726 512.8794512 -1.95105012 512.88080773 -3.08723003 512.88220537 C-7.02562935 512.05236379 -8.52516826 510.33101319 -11.03989983 507.26006222 C-12.28569893 503.52266491 -12.18008877 500.05397176 -12.17132759 496.16146278 C-12.17338022 495.32236548 -12.17543286 494.48326818 -12.17754769 493.61874369 C-12.1832416 490.78234641 -12.18175751 487.94599732 -12.18034172 485.1095953 C-12.18292398 483.06538074 -12.18593675 481.02116668 -12.18934512 478.97695333 C-12.19743462 473.34013193 -12.19920577 467.70332325 -12.19994259 462.06649673 C-12.20178975 455.99479985 -12.20933533 449.92310963 -12.2160778 443.85141659 C-12.23038449 429.87347359 -12.23618931 415.89553369 -12.24076975 401.91758521 C-12.24310464 395.01253189 -12.24670715 388.10747941 -12.25046513 381.20242674 C-12.263301 357.57276304 -12.27402051 333.9430998 -12.27746773 310.31343269 C-12.27768936 308.82977568 -12.27791115 307.34611866 -12.27813308 305.86246165 C-12.27835372 304.3751918 -12.2785742 302.88792196 -12.27879453 301.40065211 C-12.27923708 298.41685847 -12.2796842 295.43306484 -12.2801342 292.4492712 C-12.28024359 291.70946244 -12.28035298 290.96965368 -12.28046569 290.20742647 C-12.28409731 266.21250289 -12.30002113 242.21760951 -12.32332456 218.2226975 C-12.34790872 192.86277265 -12.36163989 167.50286506 -12.36283565 142.14292794 C-12.3630071 139.36021379 -12.36322253 136.57749965 -12.36347008 133.7947855 C-12.36352585 133.1095869 -12.36358161 132.4243883 -12.36363907 131.71842611 C-12.36479071 120.68171305 -12.37582221 109.64503093 -12.39035713 98.60832833 C-12.40470824 87.51964955 -12.407714 76.43100217 -12.39991716 65.34231444 C-12.39599985 59.33254551 -12.39699282 53.32288088 -12.4109745 47.31312466 C-12.42364866 41.81526267 -12.42257324 36.31758407 -12.41038379 30.81972257 C-12.4084155 28.82711936 -12.41155699 26.83450345 -12.42022815 24.84191813 C-12.43124581 22.13978224 -12.42388585 19.43830215 -12.41183662 16.73618507 C-12.42322941 15.5674815 -12.42322941 15.5674815 -12.43485236 14.37516776 C-12.3886711 9.59945859 -11.62514426 6.29149971 -9.03989983 2.26006222 C-5.5350326 -0.07651593 -4.14480387 0.00733843 0 0 Z M8.96010017 20.26006222 C8.96010017 176.02006222 8.96010017 331.78006222 8.96010017 492.26006222 C119.18010017 492.26006222 229.40010017 492.26006222 342.96010017 492.26006222 C342.96010017 336.50006222 342.96010017 180.74006222 342.96010017 20.26006222 C232.74010017 20.26006222 122.52010017 20.26006222 8.96010017 20.26006222 Z " fill="#062B75" transform="translate(28.039899826049805,-0.26006221771240234)"/>
<path d="M0 0 C36.63 0 73.26 0 111 0 C107.535 5.445 107.535 5.445 104 11 C101.84415668 14.6743753 99.71429632 18.35114882 97.625 22.0625 C96.7901709 23.54327026 96.7901709 23.54327026 95.93847656 25.05395508 C92.40749301 31.36530867 88.99579985 37.72474887 85.75 44.1875 C85.37955566 44.92299072 85.00911133 45.65848145 84.62744141 46.41625977 C82.76852852 50.12315924 82.76852852 50.12315924 81.54541016 54.06665039 C80.64492291 57.25866404 78.00183539 59.0730716 75.625 61.25 C53.8878345 82.15162281 41.35297018 113.40140302 40.70019531 143.36376953 C40.65678819 151.7363356 41.38399417 159.77202667 43 168 C43.12117188 168.79792969 43.24234375 169.59585938 43.3671875 170.41796875 C44.55415343 177.64877138 47.14909279 184.38783279 49.66015625 191.2421875 C51.22973367 195.64432592 52.13299337 198.9900739 51.9921875 203.65625 C51.48494618 228.24140215 54.52479067 252.05587802 60 276 C60.20431641 276.91958496 60.40863281 277.83916992 60.61914062 278.78662109 C65.67285205 301.17135401 73.98820281 322.93103968 83 344 C82.3702124 344.03963867 81.7404248 344.07927734 81.09155273 344.12011719 C78.20534668 344.31205373 75.32175871 344.53080364 72.4375 344.75 C70.9515332 344.8428125 70.9515332 344.8428125 69.43554688 344.9375 C63.23782819 345.43167026 59.07482386 346.3371231 54 350 C51.01280995 354.33624363 50.44205012 357.7924678 51 363 C53.18633079 368.84109271 56.93560545 371.91562664 61.625 375.75 C62.99449582 376.88785247 64.36179817 378.02835177 65.7265625 379.171875 C66.33064941 379.6678418 66.93473633 380.16380859 67.55712891 380.67480469 C69 382 69 382 70 384 C69.41318719 386.55071901 68.76618444 389.04436593 68.0625 391.5625 C65.15642707 401.8356247 65.15642707 401.8356247 67.5 411.9375 C67.995 412.618125 68.49 413.29875 69 414 C69 414.66 69 415.32 69 416 C74.53511672 418.3988783 79.03368234 419.32975712 85 418 C88.650273 416.13781865 92.02445744 413.86946677 95.34106445 411.46972656 C100.23695608 408.02241381 100.23695608 408.02241381 104.05859375 407.91015625 C107.6951467 409.25756432 110.63169431 411.25049543 113.75 413.5 C119.39413152 417.4508771 119.39413152 417.4508771 126.125 418.1875 C129.72512025 418.29134962 130.76730372 418.77998269 133.4375 421.3046875 C134.85118615 422.96396831 136.20376818 424.66245169 137.55297852 426.37451172 C142.46418275 432.5601183 147.8875231 438.15641326 153.47235107 443.7260437 C155.02297431 445.2730661 156.565478 446.82787427 158.10791016 448.38305664 C164.42347701 454.7038892 170.9780049 460.46174107 178 466 C180.03047534 467.63823563 182.02635182 469.29306103 184 471 C184 471.33 184 471.66 184 472 C123.28 472 62.56 472 0 472 C0 316.24 0 160.48 0 0 Z " fill="#D1DBFC" transform="translate(37,20)"/>
<path d="M0 0 C2.15543743 -0.0043554 4.30879349 -0.04067531 6.46386719 -0.07861328 C17.48843609 -0.16955891 26.39038409 1.53412539 34.66699219 9.30810547 C40.36308134 15.99151674 42.53583951 23.47102051 42.57019901 32.11050129 C42.57712365 33.26359329 42.58404829 34.41668528 42.59118277 35.60471946 C42.59372688 36.86714522 42.596271 38.12957099 42.59889221 39.43025208 C42.60505802 40.78847506 42.61163443 42.14669623 42.618586 43.50491542 C42.63635322 47.23664185 42.64781933 50.96836493 42.65814269 54.70011842 C42.6677917 57.90132331 42.68109978 61.10250888 42.69441164 64.30370031 C42.7419604 75.76998331 42.77465044 87.23629379 42.80371094 98.70263672 C42.80601852 99.60815048 42.8083261 100.51366424 42.81070361 101.44661781 C42.85616017 119.43885863 42.89465645 137.43111179 42.92143345 155.42339039 C42.92742222 159.37804492 42.93350791 163.33269929 42.93969727 167.28735352 C42.94123025 168.27022253 42.94276323 169.25309155 42.94434267 170.26574447 C42.97003215 186.17210643 43.02689338 202.07820281 43.09616257 217.98442832 C43.16675099 234.32915893 43.20688545 250.67375251 43.21818298 267.01863307 C43.22532774 276.18992673 43.245945 285.36075912 43.3012104 294.53190041 C43.34826696 302.34618178 43.36787231 310.15993237 43.3523289 317.97435031 C43.34525347 321.95645483 43.35078824 325.93742451 43.39190674 329.91934776 C43.68429881 359.78480669 43.68429881 359.78480669 34.42480469 373.37060547 C33.20398621 375.56242229 32.07237596 377.78683254 30.93261719 380.02294922 C29.80860511 382.11993068 28.68098215 384.21498055 27.54980469 386.30810547 C26.95192139 387.41476562 26.35403809 388.52142578 25.73803711 389.66162109 C22.14731274 396.27527903 18.51397369 402.86110276 14.73730469 409.37060547 C14.33979004 410.06404053 13.94227539 410.75747559 13.53271484 411.47192383 C11.70307363 414.57465382 10.47187096 416.33922795 7.42480469 418.37060547 C5.33886719 418.70654297 5.33886719 418.70654297 3.04980469 418.74560547 C2.29957031 418.77396484 1.54933594 418.80232422 0.77636719 418.83154297 C-2.51834381 418.18573583 -4.09640917 416.61006873 -6.57519531 414.37060547 C-8.22167969 411.89477539 -8.22167969 411.89477539 -9.66894531 409.10107422 C-10.21832764 408.05790039 -10.76770996 407.01472656 -11.33374023 405.93994141 C-11.90842041 404.82393555 -12.48310059 403.70792969 -13.07519531 402.55810547 C-14.30872326 400.21188362 -15.54423588 397.86680881 -16.78222656 395.52294922 C-17.25116081 394.63127548 -17.25116081 394.63127548 -17.72956848 393.72158813 C-21.46162932 386.64485479 -25.42859093 379.70285098 -29.39941406 372.75805664 C-29.90472656 371.872229 -30.41003906 370.98640137 -30.93066406 370.07373047 C-31.59038208 368.92372559 -31.59038208 368.92372559 -32.26342773 367.75048828 C-32.69631104 366.96512695 -33.12919434 366.17976563 -33.57519531 365.37060547 C-34.34651207 363.9963834 -34.34651207 363.9963834 -35.13341099 362.59439927 C-36.64794249 359.20794458 -36.95177771 357.08775989 -36.95551205 353.41002178 C-36.96395199 352.23320487 -36.97239193 351.05638795 -36.98108763 349.84390992 C-36.97507758 348.56016742 -36.96906753 347.27642492 -36.96287537 345.95378113 C-36.96704975 344.56907971 -36.97252785 343.18438172 -36.97919518 341.79969007 C-36.99365521 337.99962462 -36.98940336 334.19977596 -36.98202837 330.39969862 C-36.97730028 326.29936838 -36.98980345 322.19908529 -37.00004578 318.09877014 C-37.01724697 310.06737376 -37.01807095 302.03605557 -37.01283287 294.00464555 C-37.00879191 287.4759671 -37.01023385 280.94731176 -37.01558113 274.41863441 C-37.01632955 273.48952448 -37.01707798 272.56041455 -37.01784908 271.60314978 C-37.01938055 269.71565855 -37.0209189 267.82816734 -37.02246404 265.94067613 C-37.0361942 248.23713976 -37.03074808 230.53364756 -37.01927883 212.8301122 C-37.00934887 196.63788098 -37.02228211 180.44576407 -37.04621302 164.25355049 C-37.07060324 147.62517271 -37.0802119 130.99684816 -37.0735603 114.36845285 C-37.07006752 105.03380626 -37.07230383 95.69924755 -37.08981133 86.36461449 C-37.10453244 78.4170217 -37.10517008 70.46957867 -37.08774041 62.52198883 C-37.07922672 58.46817995 -37.07708967 54.4146386 -37.09239197 50.36084366 C-37.10623857 46.64663818 -37.10147669 42.93292941 -37.08215273 39.21875266 C-37.07661665 37.24533793 -37.09066467 35.27189792 -37.10550684 33.29853123 C-37.01859608 22.80791261 -34.52683546 15.77089863 -27.36816406 8.09326172 C-19.24509046 0.28874002 -10.66451863 -0.00240952 0 0 Z " fill="#052A75" transform="translate(453.5751953125,93.62939453125)"/>
<path d="M0 0 C18.05314441 15.49114702 32.05563515 39.71848712 34.25 63.6875 C34.98317228 78.75463043 35.29288902 93.33849012 30.25 107.6875 C29.899375 108.77160156 29.54875 109.85570312 29.1875 110.97265625 C23.28970798 127.82641609 12.88505599 146.21739112 -2.75 155.6875 C-2.78867187 153.73070312 -2.78867187 153.73070312 -2.828125 151.734375 C-3.31142939 134.80250325 -6.51968684 120.10950954 -18.5625 107.3125 C-22.81089038 103.32285245 -27.64317583 100.45020816 -32.75 97.6875 C-32.38648438 97.26082031 -32.02296875 96.83414063 -31.6484375 96.39453125 C-19.36105513 81.11406856 -17.46485492 64.60312648 -18.75 45.6875 C-20.31412249 33.73823933 -27.43288841 22.22451303 -36.75 14.6875 C-48.6970672 5.79166219 -63.13399843 2.95528822 -77.75 4.6875 C-85.52072869 6.3909356 -92.17287705 10.32671174 -98.75 14.6875 C-100.0803125 15.55375 -100.0803125 15.55375 -101.4375 16.4375 C-109.12955914 23.92166565 -116.3086997 35.44297201 -116.89526367 46.40136719 C-116.91990175 49.74684755 -116.93565772 53.09192198 -116.9375 56.4375 C-116.95586914 58.17 -116.95586914 58.17 -116.97460938 59.9375 C-116.9907556 69.36689278 -115.62795423 76.50587895 -111.375 84.9375 C-110.78976563 86.11828125 -110.20453125 87.2990625 -109.6015625 88.515625 C-107.89798115 91.43399642 -106.2589897 93.45483075 -103.75 95.6875 C-104.93810605 99.25181814 -105.69032675 99.50598033 -108.8125 101.375 C-119.99151217 108.62098412 -128.107632 119.2319286 -131.26171875 132.33203125 C-132.38606824 140.05856091 -132.52857133 147.89168382 -132.75 155.6875 C-148.81460068 148.08461595 -159.45995552 126.73667638 -165.2890625 110.5703125 C-174.13642574 84.46231507 -172.62653141 57.03590798 -160.56640625 32.16796875 C-146.80402905 5.79747825 -125.10417664 -12.52322243 -96.9375 -21.6875 C-94.8827816 -22.25797464 -92.8203446 -22.80163575 -90.75 -23.3125 C-89.41582031 -23.64894531 -89.41582031 -23.64894531 -88.0546875 -23.9921875 C-56.09539568 -30.63899178 -24.67818662 -20.33256981 0 0 Z " fill="#66CAD0" transform="translate(267.75,89.3125)"/>
<path d="M0 0 C1.08539063 -0.02900391 2.17078125 -0.05800781 3.2890625 -0.08789062 C9.56856431 -0.13778887 13.53001742 -0.0141507 18.25 4.3125 C19.53618437 6.88486874 19.3898172 8.73490552 19.40936089 11.61684704 C19.41936902 12.74919881 19.42937715 13.88155058 19.43968856 15.04821604 C19.44564328 16.30293265 19.45159799 17.55764925 19.45773315 18.85038757 C19.46747101 20.18865917 19.47760995 21.52692789 19.48811734 22.86519367 C19.51569073 26.55596653 19.53676919 30.24675239 19.55663323 33.93757379 C19.57441618 37.10073535 19.59583739 40.26386842 19.61717294 43.4270077 C19.81878714 73.47850886 19.92213404 103.5307186 20.00568962 133.58275127 C20.01677723 137.50072475 20.02806952 141.41869758 20.03955078 145.33666992 C20.04239532 146.31042742 20.04523985 147.28418493 20.04817058 148.28745023 C20.09552391 164.01812556 20.19173345 179.74812319 20.30712186 195.47843053 C20.42474048 211.64793018 20.49242538 227.81707952 20.51382077 243.986996 C20.52717076 253.05775247 20.56249181 262.12725149 20.655056 271.19757652 C20.73399153 278.93361594 20.76780547 286.66825069 20.7450311 294.40468623 C20.73481285 298.34382848 20.74458201 302.27992967 20.81312943 306.21855545 C21.12465482 325.08109923 18.91354911 338.96457841 7.85731149 354.85777724 C5.26704553 358.81369048 3.25092393 363.03530326 1.25 367.3125 C-1.7061716 364.51232152 -3.34831203 361.61517862 -5.25390625 358 C-5.57785873 357.38987061 -5.90181122 356.77974121 -6.23558044 356.15112305 C-7.26639155 354.20759988 -8.28974955 352.26027516 -9.3125 350.3125 C-10.3401557 348.3654642 -11.36935786 346.41926399 -12.40013123 344.47387695 C-13.33422714 342.70939752 -14.26402438 340.94264442 -15.19360352 339.17578125 C-16.73569761 336.23646784 -16.73569761 336.23646784 -18.75 333.3125 C-19.00415033 330.85648698 -19.00415033 330.85648698 -19.01006222 327.86885357 C-19.01712781 326.73099366 -19.0241934 325.59313375 -19.0314731 324.42079324 C-19.02905802 323.16517533 -19.02664293 321.90955743 -19.02415466 320.6158905 C-19.02860516 319.27288953 -19.03391858 317.92989119 -19.04002339 316.58689672 C-19.05423659 312.88832524 -19.05586605 309.18983765 -19.05542648 305.49124277 C-19.05707177 301.50544066 -19.07013288 297.51967341 -19.08161926 293.53388977 C-19.10449074 284.81493487 -19.11239216 276.09600428 -19.11744571 267.37702346 C-19.1207002 261.93473367 -19.12722117 256.49245096 -19.1344471 251.05016518 C-19.15401574 235.98731685 -19.17041843 220.92447513 -19.17332363 205.86161327 C-19.1735112 204.89728674 -19.17369877 203.93296021 -19.17389202 202.93941166 C-19.17425828 200.98441366 -19.17462198 199.02941567 -19.17498314 197.07441767 C-19.17516595 196.10392967 -19.17534876 195.13344166 -19.17553711 194.13354492 C-19.17571766 193.16187487 -19.17589821 192.19020482 -19.17608423 191.18909023 C-19.17962666 175.44081454 -19.20665218 159.69267552 -19.244035 143.94444724 C-19.28209255 127.7828786 -19.30148092 111.62137781 -19.30178314 95.45976335 C-19.30236829 86.38279239 -19.31089681 77.30598447 -19.33978081 68.2290554 C-19.36426061 60.50051111 -19.37160069 52.77218929 -19.35653328 45.04361673 C-19.34935035 41.09949577 -19.35028065 37.15581443 -19.37294388 33.2117424 C-19.39349255 29.60111053 -19.39097318 25.99125739 -19.37006903 22.38063435 C-19.36490644 20.45554081 -19.38438538 18.53042993 -19.40473074 16.60543698 C-19.31347152 7.26076682 -19.31347152 7.26076682 -16.33657932 3.55765247 C-11.31560989 -0.80055214 -6.41465799 0.05633482 0 0 Z " fill="#BA99F2" transform="translate(455.75,113.6875)"/>
<path d="M0 0 C0.72703125 0.03222656 1.4540625 0.06445312 2.203125 0.09765625 C7.03686515 1.69160431 10.52379388 4.80867628 13.05908203 9.21020508 C14.20011097 11.71596011 15.21571371 14.23658744 16.1875 16.8125 C16.53748047 17.69164062 16.88746094 18.57078125 17.24804688 19.4765625 C18.09998384 21.62391046 18.93318515 23.776604 19.75 25.9375 C20.64138672 25.98910278 20.64138672 25.98910278 21.55078125 26.04174805 C24.28584112 26.21322099 27.01734253 26.41886496 29.75 26.625 C30.68457031 26.67849609 31.61914062 26.73199219 32.58203125 26.78710938 C40.11601155 27.39298891 45.72321425 29.43777898 50.75 35.25 C52.56961199 40.14020722 52.48662417 44.08090642 50.6015625 48.83203125 C48.42165427 52.48820645 45.93187406 54.9129673 42.75 57.6875 C42.21632813 58.16832031 41.68265625 58.64914062 41.1328125 59.14453125 C38.75473041 61.26824138 36.4068645 63.166257 33.75 64.9375 C34.12082127 69.6996258 34.48273537 74.33519404 35.8125 78.9375 C37.4198489 84.99880043 37.86301199 90.67025335 35.0625 96.375 C31.32860392 100.51256053 28.48665691 102.14358016 22.9375 102.75 C16.25746593 102.65911518 11.58364837 99.16754551 6.32104492 95.4074707 C2.60400158 92.70982076 2.60400158 92.70982076 -1.78125 91.84375 C-4.52090576 93.05752154 -6.9755774 94.56504902 -9.46533203 96.22753906 C-15.56846646 100.29421468 -20.42114015 103.17921646 -28.01171875 102.42578125 C-32.86686306 101.3666311 -34.61660167 99.79344369 -37.5625 95.8125 C-42.241367 86.5693505 -37.66703254 75.33587205 -35.25 65.9375 C-36.76983264 64.56139399 -38.29092514 63.18667938 -39.8125 61.8125 C-40.72128906 60.99007812 -41.63007812 60.16765625 -42.56640625 59.3203125 C-44.75348863 57.37836163 -46.97575158 55.52420802 -49.25 53.6875 C-53.10711343 50.37492023 -54.02349833 47.65244121 -54.6875 42.625 C-54.12616744 37.89376842 -52.51397214 34.42919113 -49.25 30.9375 C-43.8137523 27.21298219 -38.23656557 27.39364825 -31.875 27.25 C-30.85277344 27.21583984 -29.83054687 27.18167969 -28.77734375 27.14648438 C-26.26833886 27.06441412 -23.75966535 26.99513124 -21.25 26.9375 C-21.06679199 26.28958496 -20.88358398 25.64166992 -20.69482422 24.97412109 C-19.24437221 19.97297738 -17.69614928 15.24243883 -15.375 10.5625 C-14.90320313 9.58539063 -14.43140625 8.60828125 -13.9453125 7.6015625 C-10.54332656 2.2555846 -6.3540416 -0.43323011 0 0 Z " fill="#FDCB50" transform="translate(141.25,337.0625)"/>
<path d="M0 0 C2.23630613 -0.00966111 4.47167449 -0.04069847 6.70776367 -0.07226562 C18.68912679 -0.1620753 28.67195254 1.2646833 38.07299805 9.24023438 C40.43526955 11.73403547 42.36455986 14.26129568 44.07299805 17.24023438 C44.41862793 17.79622314 44.76425781 18.35221191 45.12036133 18.92504883 C49.20584738 26.47408106 48.51755123 34.48925664 48.32299805 42.80273438 C48.30289674 44.30336151 48.2846524 45.80401472 48.26831055 47.3046875 C48.22461492 50.95041921 48.15579007 54.59515636 48.07299805 58.24023438 C45.05376756 59.36956831 42.03233698 60.49290068 39.01049805 61.61523438 C38.16293945 61.93234375 37.31538086 62.24945313 36.44213867 62.57617188 C12.80303398 71.33815662 -13.90356596 71.03729212 -37.0324707 60.56445312 C-38.66709498 59.79630527 -40.29977936 59.02393986 -41.92700195 58.24023438 C-42.07725497 53.76038285 -42.18509151 49.28193102 -42.2565918 44.80029297 C-42.28644802 43.2814779 -42.3271503 41.76283034 -42.37963867 40.24462891 C-42.79076728 28.03169071 -41.06840345 18.83841789 -32.67700195 9.30273438 C-23.00793702 0.51462869 -12.42276483 0.03241778 0 0 Z " fill="#FBC94F" transform="translate(196.927001953125,200.759765625)"/>
<path d="M0 0 C7.7296012 4.47363905 13.46967802 10.78239566 15.890625 19.51953125 C17.54673601 31.39384721 17.63781962 43.3351875 10.80859375 53.515625 C5.93837933 59.75594703 -0.31700678 62.85306476 -7.71875 65.3203125 C-18.41520382 66.22402951 -25.75271705 64.80858154 -34.03125 57.9453125 C-40.44578625 51.9643632 -43.67429452 45.83893646 -44.08984375 37.0546875 C-44.12286761 35.06004638 -44.14469664 33.06519352 -44.15625 31.0703125 C-44.18912109 30.08417969 -44.22199219 29.09804687 -44.25585938 28.08203125 C-44.32174632 18.98963329 -41.52497566 12.17171023 -35.40625 5.4453125 C-25.73007724 -3.53214319 -11.99188051 -5.56765881 0 0 Z " fill="#FBDEBD" transform="translate(213.71875,115.6796875)"/>
<path d="M0 0 C0.57105469 1.11632812 1.14210937 2.23265625 1.73046875 3.3828125 C13.34113414 25.87588883 26.19321505 47.3596015 41.90625 67.23046875 C43.8046915 69.7416535 45.44182002 72.26819087 47 75 C39.48125558 75.59707676 35.78621015 74.30673351 29.75 69.9375 C25.02933859 66.31508518 25.02933859 66.31508518 19.4609375 64.90625 C16.72563975 66.12193789 14.27180118 67.62929944 11.78466797 69.29003906 C5.68153354 73.35671468 0.82885985 76.24171646 -6.76171875 75.48828125 C-11.61686306 74.4291311 -13.36660167 72.85594369 -16.3125 68.875 C-20.991367 59.6318505 -16.41703254 48.39837205 -14 39 C-15.51983264 37.62389399 -17.04092514 36.24917938 -18.5625 34.875 C-19.47128906 34.05257812 -20.38007812 33.23015625 -21.31640625 32.3828125 C-23.50348863 30.44086163 -25.72575158 28.58670802 -28 26.75 C-31.85711343 23.43742023 -32.77349833 20.71494121 -33.4375 15.6875 C-32.85970296 10.81749639 -31.14199721 7.72167049 -28 4 C-20.71712215 -1.64423033 -8.8272557 -0.05593952 0 0 Z " fill="#FC9003" transform="translate(120,364)"/>
<path d="M0 0 C1.08539063 -0.02900391 2.17078125 -0.05800781 3.2890625 -0.08789062 C9.56856431 -0.13778887 13.53001742 -0.0141507 18.25 4.3125 C19.50274723 6.81799445 19.37029624 8.50985632 19.36352539 11.31298828 C19.36344986 12.35391632 19.36337433 13.39484436 19.36329651 14.46731567 C19.35813522 15.59442963 19.35297394 16.72154358 19.34765625 17.8828125 C19.3462413 19.03417694 19.34482635 20.18554138 19.34336853 21.37179565 C19.33775716 25.06038986 19.3252027 28.74892405 19.3125 32.4375 C19.30748647 34.93359288 19.30292331 37.4296867 19.29882812 39.92578125 C19.2886336 46.0547294 19.26906032 52.18354727 19.25 58.3125 C6.71 58.3125 -5.83 58.3125 -18.75 58.3125 C-18.8648982 51.15817229 -18.96441066 44.00705492 -19.0246582 36.85253906 C-19.04977629 34.41981143 -19.08387704 31.98715908 -19.12719727 29.5546875 C-19.18796444 26.05449841 -19.21623783 22.5553085 -19.23828125 19.0546875 C-19.26408768 17.97009247 -19.2898941 16.88549744 -19.31648254 15.76803589 C-19.3196068 7.32479573 -19.3196068 7.32479573 -16.34448242 3.64111328 C-11.35805645 -0.83432954 -6.45144606 0.0566579 0 0 Z " fill="#F95F50" transform="translate(455.75,113.6875)"/>
<path d="M0 0 C0.03738281 1.258125 0.07476562 2.51625 0.11328125 3.8125 C0.93082366 26.85768437 5.95971282 47.1152833 18 67 C8.37965856 67.5673858 -0.47293304 67.04785563 -9.875 64.8125 C-10.71699951 64.6163208 -11.55899902 64.4201416 -12.42651367 64.21801758 C-18.97770031 62.55354462 -24.92866868 59.9460199 -31 57 C-31.15025302 52.52014848 -31.25808956 48.04169665 -31.32958984 43.56005859 C-31.35944607 42.04124352 -31.40014835 40.52259596 -31.45263672 39.00439453 C-31.86369001 26.79369379 -30.14358572 17.59478662 -21.75 8.0625 C-15.08047258 2.05550842 -8.84044438 -0.30936868 0 0 Z " fill="#FA8E02" transform="translate(186,202)"/>
<path d="M0 0 C0.79205338 -0.0049649 1.58410675 -0.00992981 2.40016174 -0.01504517 C5.02744406 -0.02968175 7.65466598 -0.03647166 10.28198242 -0.04199219 C12.1056061 -0.04774291 13.92922976 -0.05350065 15.75285339 -0.05926514 C19.58035565 -0.06977973 23.40783688 -0.07561923 27.23535156 -0.07910156 C32.13818995 -0.08458379 37.04075026 -0.10860405 41.94350147 -0.13707352 C45.71218169 -0.15570522 49.48079505 -0.16090581 53.24951744 -0.16243744 C55.05681565 -0.16546387 56.86411269 -0.17349209 58.67136574 -0.18662262 C61.20169785 -0.2036925 63.73135229 -0.20180058 66.26171875 -0.1953125 C67.00736084 -0.20452728 67.75300293 -0.21374207 68.52124023 -0.22323608 C72.96928797 -0.18753887 75.80402613 0.39687548 79.32495117 3.16113281 C81.77100822 6.83021839 82.16441519 9.8973205 81.32495117 14.16113281 C79.14920701 16.8521848 77.41429261 18.61646209 74.32495117 20.16113281 C71.758216 20.28011858 69.21775268 20.33945196 66.64990234 20.35400391 C65.85784897 20.3621814 65.06579559 20.37035889 64.2497406 20.37878418 C61.62247477 20.40364399 58.99526298 20.42015547 56.36791992 20.43457031 C55.47132471 20.43989399 54.5747295 20.44521767 53.65096474 20.45070267 C48.90550211 20.47743656 44.16006582 20.49681085 39.41455078 20.51123047 C34.5115255 20.52788084 29.60917206 20.5726609 24.70640087 20.62360191 C20.93772097 20.65724788 17.16920108 20.66880495 13.4003849 20.67445755 C11.59304989 20.68117718 9.78572567 20.69641776 7.97853661 20.72034836 C5.44786101 20.75194768 2.91900446 20.75204518 0.38818359 20.74462891 C-0.3574585 20.76103424 -1.10310059 20.77743958 -1.87133789 20.79434204 C-5.84429672 20.74671716 -7.50181012 20.3031578 -10.61650085 17.74966431 C-13.83552961 13.70188042 -14.11524331 11.35542773 -13.67504883 6.16113281 C-9.75834252 0.15551647 -6.76432709 0.01005909 0 0 Z " fill="#FD6151" transform="translate(240.675048828125,422.8388671875)"/>
<path d="M0 0 C0.79205338 -0.0049649 1.58410675 -0.00992981 2.40016174 -0.01504517 C5.02744406 -0.02968175 7.65466598 -0.03647166 10.28198242 -0.04199219 C12.1056061 -0.04774291 13.92922976 -0.05350065 15.75285339 -0.05926514 C19.58035565 -0.06977973 23.40783688 -0.07561923 27.23535156 -0.07910156 C32.13818995 -0.08458379 37.04075026 -0.10860405 41.94350147 -0.13707352 C45.71218169 -0.15570522 49.48079505 -0.16090581 53.24951744 -0.16243744 C55.05681565 -0.16546387 56.86411269 -0.17349209 58.67136574 -0.18662262 C61.20169785 -0.2036925 63.73135229 -0.20180058 66.26171875 -0.1953125 C67.00736084 -0.20452728 67.75300293 -0.21374207 68.52124023 -0.22323608 C72.96928797 -0.18753887 75.80402613 0.39687548 79.32495117 3.16113281 C81.77100822 6.83021839 82.16441519 9.8973205 81.32495117 14.16113281 C79.14920701 16.8521848 77.41429261 18.61646209 74.32495117 20.16113281 C71.78841633 20.26967719 69.27891683 20.31844506 66.74169922 20.32226562 C65.56824951 20.32971298 65.56824951 20.32971298 64.37109375 20.33731079 C61.77627694 20.35194683 59.18152128 20.35873721 56.58666992 20.36425781 C54.78546649 20.3700086 52.98426308 20.37576634 51.18305969 20.38153076 C47.40263585 20.39204521 43.62223329 20.3978848 39.84179688 20.40136719 C34.99949112 20.40684927 30.15746693 20.43086927 25.31524944 20.45933914 C21.59289226 20.47797179 17.87060277 20.48317148 14.1482029 20.48470306 C12.36323319 20.4877293 10.57826466 20.49575687 8.79334068 20.50888824 C6.29413896 20.52596008 3.79562324 20.52406575 1.29638672 20.51757812 C0.56009537 20.52679291 -0.17619598 20.53600769 -0.93479919 20.54550171 C-5.36141645 20.50954044 -8.13853571 19.85464727 -11.67504883 17.16113281 C-14.24075472 13.74019162 -14.11212937 10.31339797 -13.67504883 6.16113281 C-9.75834252 0.15551647 -6.76432709 0.01005909 0 0 Z " fill="#FD6151" transform="translate(240.675048828125,333.8388671875)"/>
<path d="M0 0 C1.79405418 0.00358002 3.58811405 0.00493391 5.38217163 0.00416565 C9.13307146 0.00884648 12.88310669 0.03360889 16.63378906 0.07397461 C21.43682833 0.12501766 26.23892132 0.13641477 31.04220009 0.13413906 C34.7431844 0.1349554 38.44396268 0.15141738 42.14487839 0.17314339 C43.91586118 0.18267447 45.68686725 0.18859884 47.4578743 0.19082451 C49.93276883 0.19734266 52.40666786 0.2236285 54.88134766 0.25561523 C55.60978378 0.25425568 56.33821991 0.25289612 57.08872986 0.25149536 C61.47975032 0.33432389 64.29079109 0.97902233 67.7734375 3.69140625 C70.23008947 7.37638421 70.47430241 10.41112411 69.7734375 14.69140625 C67.97979839 17.50144085 66.75462815 19.20081093 63.7734375 20.69140625 C61.17605856 20.80524614 58.60486468 20.8592283 56.0065918 20.8684082 C55.20478485 20.8749794 54.40297791 20.8815506 53.57687378 20.88832092 C50.9171337 20.90806986 48.25745013 20.91971998 45.59765625 20.9296875 C44.23621459 20.93580079 44.23621459 20.93580079 42.84726906 20.94203758 C38.04344535 20.96290504 33.23965026 20.97720388 28.43579102 20.98657227 C23.47233805 20.99763871 18.50933315 21.0320393 13.54603863 21.07174397 C9.73103498 21.09788151 5.91613855 21.10626154 2.10105324 21.10985374 C0.27141099 21.11472705 -1.55822624 21.12636219 -3.38778114 21.14489174 C-5.94939358 21.16922291 -8.50984075 21.16832947 -11.0715332 21.16137695 C-11.82652603 21.17418701 -12.58151886 21.18699707 -13.35939026 21.20019531 C-17.03218871 21.16388442 -19.05808143 20.80027297 -22.17375183 18.78703308 C-24.9625486 15.94006944 -25.18572861 14.99766044 -25.7265625 10.94140625 C-25.62158711 7.66988905 -25.11173679 5.85032693 -22.83447266 3.46899414 C-16.62136522 -1.46768654 -7.52367555 -0.09886448 0 0 Z " fill="#FD6353" transform="translate(252.2265625,377.30859375)"/>
<path d="M0 0 C1.13583493 3.40750479 0.53601036 4.66981997 -0.49316406 7.97949219 C-3.47475312 19.86563431 -1.21719429 33.86505717 4.3203125 44.546875 C9.89598768 53.62638978 16.97018148 58.69098201 27 62 C23.07835425 65.92164575 18.03287239 66.30973294 12.6875 66.375 C3.41824247 66.1959348 -2.56705952 63.04967511 -9.27734375 56.79296875 C-16.48549709 49.29060507 -17.37991245 41.69344957 -17.4375 31.75 C-17.47037109 30.76386719 -17.50324219 29.77773437 -17.53710938 28.76171875 C-17.60354157 19.59407623 -14.8075987 12.73113052 -8.5 6.0625 C-5.8713245 3.62364133 -3.20322756 1.65014753 0 0 Z " fill="#F4AE73" transform="translate(187,115)"/>
<path d="M0 0 C12.21 0 24.42 0 37 0 C37 12.37156324 37 12.37156324 34.33203125 16.75390625 C33.76806641 17.71103516 33.20410156 18.66816406 32.62304688 19.65429688 C32.02556641 20.61400391 31.42808594 21.57371094 30.8125 22.5625 C29.65004514 24.49992477 28.48986533 26.43871649 27.33203125 28.37890625 C26.77080566 29.30848145 26.20958008 30.23805664 25.63134766 31.19580078 C23.20845989 35.36061504 21.07881265 39.65522808 19 44 C15.91815148 41.34648018 14.34211923 38.18808336 12.4609375 34.6171875 C12.13461334 34.00231476 11.80828918 33.38744202 11.47207642 32.75393677 C10.43454046 30.79697782 9.4044402 28.8362279 8.375 26.875 C7.33716021 24.90732873 6.2977821 22.94049178 5.25650024 20.97463989 C4.31556506 19.1967856 3.37911188 17.41656137 2.44287109 15.63623047 C1.24100905 13.14741399 1.24100905 13.14741399 0 12 C0 8.04 0 4.08 0 0 Z " fill="#FCFDFD" transform="translate(438,437)"/>
</svg>
